<svg width="40" height="40" viewBox="0 0 40 40" fill="none" xmlns="http://www.w3.org/2000/svg">
<path fill-rule="evenodd" clip-rule="evenodd" d="M19.999 0C31.0451 0 39.999 8.95391 39.999 20C39.999 31.0461 31.0451 40 19.999 40C8.95293 40 -0.000976562 31.0461 -0.000976562 20C-0.000976562 8.95391 8.95293 0 19.999 0ZM11.0896 29.282H14.9201V16.9062H11.0896V29.282ZM12.9865 15.2859C14.2381 15.2859 15.2521 14.2625 15.2521 13.0016C15.2521 11.7406 14.2381 10.718 12.9865 10.718C11.735 10.718 10.7217 11.7406 10.7217 13.0016C10.7217 14.2625 11.735 15.2859 12.9865 15.2859ZM21.0436 22.7859C21.0436 21.0461 21.8451 20.0086 23.3787 20.0086C24.7865 20.0086 25.4639 21.0039 25.4639 22.7859V29.282H29.2764C29.2764 29.282 29.2764 24.7609 29.2764 21.4461C29.2764 18.1313 27.3975 16.5281 24.7732 16.5281C22.1482 16.5281 21.0436 18.5734 21.0436 18.5734V16.9062H17.3693V29.282H21.0436C21.0436 29.282 21.0436 24.6922 21.0436 22.7859Z" fill="#0372E5"/>
</svg>
