<svg width="40" height="40" viewBox="0 0 40 40" fill="none" xmlns="http://www.w3.org/2000/svg">
<path fill-rule="evenodd" clip-rule="evenodd" d="M19.9992 39.9994C31.0448 39.9994 39.9989 31.0452 39.9989 19.9997C39.9989 8.95418 31.0448 0 19.9992 0C8.95369 0 -0.000488281 8.95418 -0.000488281 19.9997C-0.000488281 31.0452 8.95369 39.9994 19.9992 39.9994ZM11.5905 15.8988C11.333 16.7756 11.333 17.8505 11.333 20.0005C11.333 22.1505 11.333 23.2254 11.5905 24.1022C12.1998 26.1774 13.8227 27.8004 15.898 28.4097C16.7748 28.6671 17.8497 28.6671 19.9997 28.6671H19.9997H19.9998C22.1496 28.6671 23.2246 28.6671 24.1014 28.4097C26.1766 27.8004 27.7996 26.1774 28.4089 24.1022C28.6663 23.2254 28.6663 22.1505 28.6663 20.0005C28.6663 17.8505 28.6663 16.7756 28.4089 15.8988C27.7996 13.8235 26.1766 12.2006 24.1014 11.5912C23.2246 11.3338 22.1496 11.3338 19.9997 11.3338C17.8497 11.3338 16.7748 11.3338 15.898 11.5912C13.8227 12.2006 12.1998 13.8235 11.5905 15.8988ZM15.4114 20.0004C15.4114 17.4665 17.4658 15.4121 19.9997 15.4121C22.5335 15.4121 24.5879 17.4665 24.5879 20.0004C24.5879 22.5342 22.5335 24.5886 19.9997 24.5886C17.4658 24.5886 15.4114 22.5342 15.4114 20.0004ZM17.132 20.0004C17.132 21.581 18.419 22.868 19.9997 22.868C21.5803 22.868 22.8673 21.581 22.8673 20.0004C22.8673 18.4185 21.5803 17.1327 19.9997 17.1327C18.419 17.1327 17.132 18.4185 17.132 20.0004ZM24.9319 15.679C25.2696 15.679 25.5433 15.4053 25.5433 15.0677C25.5433 14.73 25.2696 14.4563 24.9319 14.4563C24.5944 14.4563 24.3206 14.73 24.3206 15.0677C24.3206 15.4053 24.5944 15.679 24.9319 15.679Z" fill="#0372E5"/>
</svg>
