<svg width="40" height="40" viewBox="0 0 40 40" fill="none" xmlns="http://www.w3.org/2000/svg">
<path fill-rule="evenodd" clip-rule="evenodd" d="M19.999 0C31.0451 0 39.999 8.95391 39.999 20C39.999 31.0461 31.0451 40 19.999 40C8.95293 40 -0.000976562 31.0461 -0.000976562 20C-0.000976562 8.95391 8.95293 0 19.999 0ZM22.8186 20.2617L18.4021 22.6836C18.2107 22.7875 18.0381 22.6484 18.0381 22.4305V17.4586C18.0381 17.2375 18.2162 17.0984 18.4084 17.2078L22.8545 19.7578C23.0514 19.8695 23.0178 20.1539 22.8186 20.2617ZM29.8053 17.4055C29.8053 15.0469 27.8936 13.1359 25.5357 13.1359H14.4623C12.1045 13.1359 10.1928 15.0469 10.1928 17.4055V22.5945C10.1928 24.9531 12.1045 26.8641 14.4623 26.8641H25.5365C27.8936 26.8641 29.8053 24.9531 29.8053 22.5945V17.4055Z" fill="#0372E5"/>
</svg>
