<svg width="40" height="40" viewBox="0 0 40 40" fill="none" xmlns="http://www.w3.org/2000/svg">
<path fill-rule="evenodd" clip-rule="evenodd" d="M19.9997 39.9994C31.0452 39.9994 39.9994 31.0452 39.9994 19.9997C39.9994 8.95418 31.0452 0 19.9997 0C8.95418 0 0 8.95418 0 19.9997C0 31.0452 8.95418 39.9994 19.9997 39.9994ZM28.5949 16.163C28.5949 22.0261 24.1359 28.799 15.9847 28.799C13.5808 28.7997 11.2267 28.1116 9.19971 26.8157C9.54911 26.8578 9.90078 26.8781 10.2527 26.8766C12.2499 26.8799 14.19 26.209 15.7606 24.9719C14.8361 24.9555 13.9398 24.6494 13.1973 24.0967C12.4549 23.5439 11.9034 22.7721 11.6202 21.8894C11.8934 21.9416 12.171 21.9674 12.4491 21.9666C12.8436 21.9683 13.2365 21.916 13.6168 21.8109C12.6148 21.6063 11.714 21.061 11.0666 20.2673C10.4192 19.4735 10.0649 18.4799 10.0637 17.4545V17.3936C10.68 17.7328 11.3672 17.922 12.0698 17.9459C11.1321 17.3171 10.4683 16.3541 10.2131 15.2523C9.95782 14.1505 10.1303 12.9926 10.6955 12.0138C11.8088 13.3863 13.1974 14.5088 14.7711 15.3085C16.3449 16.1082 18.0687 16.5672 19.8308 16.6558C19.6096 15.7027 19.7081 14.703 20.1109 13.8116C20.5136 12.9203 21.1983 12.187 22.0587 11.7253C22.9192 11.2637 23.9074 11.0994 24.8704 11.258C25.8334 11.4166 26.7173 11.8892 27.3853 12.6026C28.3789 12.4096 29.332 12.0464 30.2027 11.5291C29.8702 12.5593 29.1761 13.4334 28.2493 13.9889C29.1291 13.8825 29.9885 13.6462 30.7994 13.2876C30.2041 14.1813 29.4549 14.9615 28.5868 15.5917C28.5949 15.7812 28.5949 15.9734 28.5949 16.1629V16.163Z" fill="#0372E5"/>
</svg>
