<svg width="229" height="36" viewBox="0 0 229 36" fill="none" xmlns="http://www.w3.org/2000/svg">
<path d="M56.0352 2.2876H64.2019V22.2086H76.9477V28.7167H56.0352V2.2876ZM80.4451 2.2876H87.7826V7.28132H80.4451V2.2876ZM80.4451 9.57086H87.7826V28.7167H80.4451V9.57086ZM92.4698 9.57086H99.3025V12.6897C100.324 11.4158 101.358 10.5084 102.404 9.96756C103.449 9.41466 104.723 9.13827 106.225 9.13827C108.257 9.13827 109.843 9.74521 110.985 10.959C112.139 12.1609 112.715 14.0238 112.715 16.5478V28.7167H105.342V18.1883C105.342 16.9864 105.119 16.1391 104.674 15.6464C104.23 15.1416 103.606 14.8892 102.8 14.8892C101.91 14.8892 101.189 15.2257 100.637 15.8988C100.084 16.5718 99.8073 17.7796 99.8073 19.5224V28.7167H92.4698V9.57086ZM138.351 20.9646H123.641C123.773 22.1424 124.091 23.0198 124.595 23.5967C125.305 24.426 126.23 24.8406 127.372 24.8406C128.093 24.8406 128.778 24.6603 129.427 24.2998C129.824 24.0714 130.251 23.6688 130.707 23.0919L137.936 23.7589C136.831 25.6819 135.497 27.0641 133.935 27.9054C132.372 28.7347 130.131 29.1494 127.21 29.1494C124.673 29.1494 122.679 28.7948 121.224 28.0857C119.77 27.3645 118.563 26.2288 117.601 24.6784C116.651 23.116 116.176 21.2832 116.176 19.1799C116.176 16.1872 117.132 13.7654 119.043 11.9146C120.966 10.0637 123.616 9.13827 126.993 9.13827C129.734 9.13827 131.897 9.55291 133.483 10.3821C135.07 11.2114 136.278 12.4133 137.108 13.9878C137.936 15.5622 138.351 17.6114 138.351 20.1353V20.9646ZM130.888 17.4492C130.743 16.031 130.358 15.0153 129.734 14.4024C129.12 13.7894 128.309 13.483 127.3 13.483C126.134 13.483 125.203 13.9457 124.505 14.8711C124.061 15.448 123.778 16.3074 123.658 17.4492H130.888Z" fill="#0372E5"/>
<path d="M140.316 16.2412H150.989V21.9201H140.316V16.2412ZM154.486 2.2876H176.373V7.93032H162.671V12.1308H175.381V17.5213H162.671V22.7314H176.768V28.7167H154.486V2.2876ZM179.329 2.2876H204.154V8.81377H195.825V28.7167H187.658V8.81377H179.329V2.2876ZM207.903 2.2876H228.094V7.96642H216.106V12.5816H226.346V17.9179H216.106V28.7167H207.903V2.2876Z" fill="#070713"/>
<path d="M17.8517 2.2876H26.0005V18.0441C26.0005 19.6065 25.754 21.0848 25.2613 22.479C24.7805 23.8611 24.0174 25.075 22.9717 26.1207C21.9381 27.1543 20.8504 27.8813 19.7086 28.302C18.1221 28.8909 16.2172 29.1854 13.9937 29.1854C12.7077 29.1854 11.3015 29.0952 9.77513 28.915C8.26084 28.7347 6.99285 28.3802 5.97127 27.8513C4.94967 27.3105 4.01221 26.5473 3.15889 25.5617C2.31758 24.5762 1.74069 23.5607 1.4282 22.515C0.923409 20.8324 0.671021 19.3421 0.671021 18.0441V2.2876H8.81968V18.4227C8.81968 19.8649 9.21628 20.9947 10.0096 21.812C10.8148 22.6171 11.9265 23.0198 13.3447 23.0198C14.7509 23.0198 15.8507 22.6232 16.6438 21.83C17.4491 21.0247 17.8517 19.889 17.8517 18.4227V2.2876ZM30.9581 36V9.57086H37.8268V12.4013C38.7763 11.2114 39.6476 10.4062 40.4408 9.98551C41.5105 9.42061 42.6944 9.13827 43.9924 9.13827C46.5524 9.13827 48.5295 10.1177 49.9236 12.0768C51.3298 14.0358 52.0329 16.4576 52.0329 19.3421C52.0329 22.527 51.2697 24.9608 49.7434 26.6434C48.217 28.314 46.288 29.1494 43.9564 29.1494C42.8266 29.1494 41.793 28.9571 40.8555 28.5725C39.9301 28.1879 39.1008 27.6169 38.3677 26.8598V36H30.9581ZM38.3135 19.1979C38.3135 20.7122 38.6321 21.836 39.2691 22.5692C39.9061 23.3022 40.7113 23.6688 41.6848 23.6688C42.5382 23.6688 43.2532 23.3203 43.8301 22.6232C44.407 21.9141 44.6955 20.7183 44.6955 19.0356C44.6955 17.4852 44.395 16.3494 43.7941 15.6283C43.1931 14.8951 42.46 14.5286 41.5946 14.5286C40.6572 14.5286 39.876 14.8951 39.251 15.6283C38.626 16.3614 38.3135 17.5513 38.3135 19.1979Z" fill="#F46B25"/>
<path d="M15.5639 12.0666L0 28.7167L15.6098 14.4051L18.1526 16.65L29.6524 6.17357L31.256 9.86838L33.8446 0L24.2232 2.64245L27.4075 4.09233L18.0839 13.3995L15.5639 12.0666Z" fill="#0372E5"/>
</svg>
