<svg width="14" height="11" viewBox="0 0 14 11" fill="none" xmlns="http://www.w3.org/2000/svg">
<path d="M11.1606 0.697404C11.3749 0.477599 11.6642 0.353893 11.966 0.353032C12.2678 0.35217 12.5577 0.474222 12.7732 0.6928C12.9887 0.911378 13.1124 1.20892 13.1175 1.5211C13.1227 1.83327 13.0088 2.135 12.8007 2.36105L6.68752 10.2674C6.58245 10.3844 6.45565 10.4784 6.31468 10.5436C6.17372 10.6088 6.02149 10.644 5.8671 10.6469C5.71271 10.6499 5.55932 10.6206 5.41612 10.5608C5.27292 10.5011 5.14284 10.412 5.03366 10.299L0.983223 6.10664C0.870382 5.99785 0.779876 5.86666 0.717103 5.72089C0.65433 5.57513 0.620575 5.41777 0.617855 5.25822C0.615134 5.09866 0.643502 4.94017 0.701266 4.7922C0.75903 4.64424 0.845008 4.50982 0.954069 4.39698C1.06313 4.28414 1.19304 4.19518 1.33605 4.13542C1.47906 4.07565 1.63224 4.0463 1.78645 4.04912C1.94066 4.05193 2.09275 4.08686 2.23363 4.1518C2.37452 4.21675 2.50131 4.3104 2.60646 4.42715L5.81312 7.74336L11.1315 0.732261C11.141 0.719985 11.1497 0.708342 11.1606 0.697404Z" fill="#070713"/>
</svg>
