<svg width="26" height="26" viewBox="0 0 26 26" fill="none" xmlns="http://www.w3.org/2000/svg">
<path fill-rule="evenodd" clip-rule="evenodd" d="M3.61944 1.50998C3.88786 1.24194 4.21018 1.03402 4.56502 0.899981C4.91987 0.765944 5.29915 0.708856 5.67773 0.732501C6.05631 0.756145 6.42554 0.859983 6.76095 1.03713C7.09637 1.21428 7.39031 1.4607 7.6233 1.76005L10.3769 5.29782C10.8816 5.94677 11.0596 6.7921 10.8601 7.58986L10.021 10.9497C9.97762 11.1237 9.97996 11.306 10.0278 11.4788C10.0757 11.6517 10.1674 11.8092 10.2941 11.9361L14.0632 15.7056C14.1903 15.8325 14.3481 15.9244 14.5212 15.9723C14.6943 16.0201 14.8769 16.0223 15.0511 15.9787L18.4092 15.1395C18.8028 15.041 19.2137 15.0334 19.6107 15.1171C20.0078 15.2008 20.3806 15.3737 20.701 15.6227L24.2385 18.375C25.5102 19.3645 25.6268 21.2439 24.4886 22.3807L22.9024 23.967C21.7672 25.1023 20.0705 25.6009 18.4889 25.044C14.4409 23.6196 10.7654 21.3019 7.73528 18.263C4.69679 15.2331 2.37934 11.5579 0.954812 7.51008C0.399488 5.9299 0.898052 4.23158 2.03324 3.0963L3.61944 1.50998Z" fill="#FAFAFA"/>
</svg>
